<svg xmlns:mydata="http://www.w3.org/2000/svg" mydata:contrastcolor="98DBCE" mydata:template="BlackAndHighlightColorHex1" mydata:presentation="2.5" mydata:layouttype="undefined" mydata:specialfontid="undefined" mydata:id1="035" mydata:id2="037" mydata:companyname="Ticket.br" mydata:companytagline="" version="1.1" xmlns="http://www.w3.org/2000/svg" xmlns:xlink="http://www.w3.org/1999/xlink" viewBox="0 0 550 470"><g fill="#e40046" fill-rule="none" stroke="none" stroke-width="1" stroke-linecap="butt" stroke-linejoin="miter" stroke-miterlimit="10" stroke-dasharray="" stroke-dashoffset="0" font-family="none" font-weight="none" font-size="none" text-anchor="none" style="mix-blend-mode: normal"><g data-paper-data="{&quot;isGlobalGroup&quot;:true,&quot;bounds&quot;:{&quot;x&quot;:65,&quot;y&quot;:121.35216908895461,&quot;width&quot;:420,&quot;height&quot;:227.29566182209072}}"><g data-paper-data="{&quot;isPrimaryText&quot;:true}" fill-rule="nonzero"><path d="M96.27057,314.17656h-10.87672v33.87645h-9.6021v-33.87645h-10.79175v-7.36445h31.27057z" data-paper-data="{&quot;glyphName&quot;:&quot;T&quot;,&quot;glyphIndex&quot;:0,&quot;firstGlyphOfWord&quot;:true,&quot;word&quot;:1}"></path><path d="M128.47586,348.05301h-9.54545v-41.2409h9.54545z" data-paper-data="{&quot;glyphName&quot;:&quot;I&quot;,&quot;glyphIndex&quot;:1,&quot;word&quot;:1}"></path><path d="M185.83356,333.57904l0.05665,0.16995c-0.18883,4.8341 -1.61923,8.52576 -4.29121,11.07499c-2.67197,2.54923 -6.54775,3.82385 -11.62733,3.82385c-5.09846,0 -9.24332,-1.56731 -12.43458,-4.70192c-3.19126,-3.13461 -4.78689,-7.20394 -4.78689,-12.20798v-8.61074c0,-4.98516 1.53426,-9.04977 4.60278,-12.19382c3.06852,-3.14405 7.05759,-4.71608 11.96722,-4.71608c5.21176,0 9.19612,1.31238 11.95306,3.93715c2.75695,2.62476 4.31481,6.35419 4.67359,11.18829l-0.05665,0.16995h-9.31886c-0.13218,-2.68141 -0.73172,-4.67359 -1.79862,-5.97653c-1.0669,-1.30294 -2.88441,-1.95441 -5.45252,-1.95441c-2.17157,0 -3.8805,0.87335 -5.12679,2.62004c-1.24629,1.7467 -1.86944,4.03628 -1.86944,6.86876v8.66739c0,2.85136 0.67979,5.15511 2.03938,6.91125c1.35959,1.75614 3.22903,2.63421 5.60831,2.63421c2.30375,0 3.93715,-0.6137 4.90019,-1.84111c0.96304,-1.22741 1.51066,-3.18182 1.64284,-5.86323z" data-paper-data="{&quot;glyphName&quot;:&quot;C&quot;,&quot;glyphIndex&quot;:2,&quot;word&quot;:1}"></path><path d="M223.13731,331.51133h-4.41867v16.54168h-9.6021v-41.2409h9.6021v16.14513h3.25735l9.06393,-16.14513h11.89641l-12.77448,18.66604l13.87915,22.57486h-11.66981z" data-paper-data="{&quot;glyphName&quot;:&quot;K&quot;,&quot;glyphIndex&quot;:3,&quot;word&quot;:1}"></path><path d="M290.55031,330.40667h-16.17346v10.2819h19.06258v7.36445h-28.66469v-41.2409h28.72134v7.36445h-19.11923v8.86566h16.17346z" data-paper-data="{&quot;glyphName&quot;:&quot;E&quot;,&quot;glyphIndex&quot;:4,&quot;word&quot;:1}"></path><path d="M345.24548,314.17656h-10.87672v33.87645h-9.6021v-33.87645h-10.79175v-7.36445h31.27057z" data-paper-data="{&quot;glyphName&quot;:&quot;T&quot;,&quot;glyphIndex&quot;:5,&quot;word&quot;:1}"></path><path d="M370.11465,348.05301h-9.54545v-8.04424h9.54545z" data-paper-data="{&quot;glyphName&quot;:&quot;.&quot;,&quot;glyphIndex&quot;:6,&quot;word&quot;:1}"></path><path d="M395.60696,348.05301v-41.2409h14.1624c5.11735,0 9.11114,0.94888 11.98139,2.84664c2.87025,1.89776 4.30537,4.72552 4.30537,8.48327c0,1.96385 -0.46264,3.71055 -1.38791,5.24009c-0.92528,1.52954 -2.35096,2.68141 -4.27704,3.45562c2.41705,0.54761 4.20151,1.64756 5.35339,3.29984c1.15187,1.65228 1.72781,3.55476 1.72781,5.70745c0,4.02212 -1.35015,7.06231 -4.05045,9.12058c-2.7003,2.05827 -6.57135,3.0874 -11.61316,3.0874zM405.20906,330.35002v10.33855h6.59968c2.03938,0 3.56892,-0.40127 4.58862,-1.2038c1.01969,-0.80254 1.52954,-2.03466 1.52954,-3.69639c0,-1.7939 -0.43903,-3.14877 -1.3171,-4.06461c-0.87807,-0.91583 -2.29903,-1.37375 -4.26288,-1.37375zM405.20906,324.00526h4.75856c2.17157,-0.03777 3.79552,-0.45792 4.87186,-1.26045c1.07634,-0.80254 1.61451,-1.97801 1.61451,-3.52644c0,-1.75614 -0.54761,-3.03547 -1.64284,-3.83801c-1.09523,-0.80254 -2.77583,-1.2038 -5.04181,-1.2038h-4.56029z" data-paper-data="{&quot;glyphName&quot;:&quot;B&quot;,&quot;glyphIndex&quot;:7,&quot;word&quot;:1}"></path><path d="M460.58403,332.24778v15.80523h-9.6021v-41.2409h15.86188c4.77745,0 8.56353,1.10467 11.35824,3.314c2.79471,2.20933 4.19207,5.23064 4.19207,9.06393c0,2.1338 -0.56178,3.96547 -1.68533,5.49501c-1.12355,1.52954 -2.78055,2.77583 -4.971,3.73887c2.53035,0.71756 4.34786,1.91192 5.45252,3.58309c1.10467,1.67116 1.657,3.75303 1.657,6.24562v2.60588c0,1.07634 0.16051,2.30375 0.48152,3.68222c0.32101,1.37847 0.87807,2.3604 1.67116,2.94578v0.5665h-9.85703c-0.75533,-0.58538 -1.25101,-1.62395 -1.48705,-3.11573c-0.23604,-1.49177 -0.35406,-2.87025 -0.35406,-4.13542v-2.49258c0,-1.96385 -0.51929,-3.46507 -1.55786,-4.50364c-1.03858,-1.03858 -2.55867,-1.55786 -4.56029,-1.55786zM460.58403,324.88333h6.31643c1.92609,0 3.39897,-0.43903 4.41867,-1.3171c1.01969,-0.87807 1.52954,-2.13852 1.52954,-3.78136c0,-1.6806 -0.52401,-3.03547 -1.57203,-4.06461c-1.04802,-1.02913 -2.52563,-1.5437 -4.43283,-1.5437h-6.25978z" data-paper-data="{&quot;glyphName&quot;:&quot;R&quot;,&quot;glyphIndex&quot;:8,&quot;lastGlyphOfWord&quot;:true,&quot;word&quot;:1}"></path></g><g data-paper-data="{&quot;isIcon&quot;:&quot;true&quot;,&quot;iconType&quot;:&quot;icon&quot;,&quot;rawIconId&quot;:&quot;82124&quot;,&quot;selectedEffects&quot;:{&quot;container&quot;:&quot;&quot;,&quot;transformation&quot;:&quot;&quot;,&quot;pattern&quot;:&quot;&quot;},&quot;combineTerms&quot;:&quot;Ticket&quot;,&quot;isDetailed&quot;:false,&quot;fillRule&quot;:&quot;evenodd&quot;,&quot;bounds&quot;:{&quot;x&quot;:203.4423053013438,&quot;y&quot;:121.35216908895461,&quot;width&quot;:143.11538939731244,&quot;height&quot;:143.1169422162132},&quot;iconStyle&quot;:&quot;standalone&quot;,&quot;suitableAsStandaloneIcon&quot;:true}" fill-rule="evenodd"><path d="M203.44231,233.60001c5.61236,-5.61252 5.61236,-14.03106 0,-19.64343l59.89425,-59.89456l2.7192,2.71761l0.87618,-0.87618l-2.71761,-2.7192l31.83211,-31.83207c5.61252,5.61236 14.03106,5.61236 19.64343,0l1.40253,1.40317c-0.77505,0.77489 -0.77505,2.03127 0,2.80618c0.77489,0.77491 2.03129,0.77491 2.80618,0l1.40413,1.40285c-0.77505,0.77489 -0.77505,2.03127 0,2.80614c0.77489,0.77489 2.03113,0.77489 2.80618,0l1.40301,1.40317c-0.77489,0.77489 -0.77489,2.03129 0,2.80618c0.77489,0.77489 2.03129,0.77489 2.80618,0l1.40317,1.40301c-0.77489,0.77489 -0.77489,2.03129 0,2.80618c0.77489,0.77489 2.03113,0.77489 2.80618,0l1.40301,1.40317c-0.77489,0.77489 -0.77489,2.03129 0,2.80618c0.77489,0.77489 2.03129,0.77489 2.80618,0l1.40253,1.40413c-0.77489,0.77489 -0.77489,2.03129 0,2.80618c0.77489,0.77489 2.03129,0.77489 2.80618,0l1.40317,1.40301c-0.77489,0.77489 -0.77489,2.03129 0,2.80618c0.77489,0.77489 2.03129,0.77489 2.80618,0l1.40301,1.40317c-5.61236,5.61252 -5.61236,14.03106 0,19.64343l-31.83211,31.83371l-2.4115,-2.4115l-0.87698,0.87682l2.41166,2.41166l-59.89393,59.89393c-5.61268,-5.61252 -14.03122,-5.61252 -19.64359,0l-1.40413,-1.40428c0.77505,-0.77473 0.77505,-2.03113 0,-2.80618c-0.77489,-0.77489 -2.03113,-0.77489 -2.80618,0l-1.40301,-1.40301c0.77489,-0.77489 0.77489,-2.03129 0,-2.80618c-0.77489,-0.77489 -2.03129,-0.77489 -2.80618,0l-1.40317,-1.40317c0.77505,-0.77473 0.77505,-2.03113 0,-2.80618c-0.77489,-0.77489 -2.03113,-0.77489 -2.80618,0l-1.40301,-1.40301c0.77489,-0.77489 0.77489,-2.03129 0,-2.80618c-0.77489,-0.77489 -2.03129,-0.77489 -2.80618,0l-1.40317,-1.40317c0.77505,-0.77489 0.77505,-2.03113 0,-2.80602c-0.77489,-0.77505 -2.03113,-0.77505 -2.80618,0l-1.40301,-1.40317c0.77489,-0.77489 0.77489,-2.03129 0,-2.80618c-0.77489,-0.77489 -2.03127,-0.77489 -2.80618,0l-1.40309,-1.40317c0.77491,-0.77489 0.77491,-2.03113 0,-2.80602c-0.77489,-0.77505 -2.03127,-0.77505 -2.80618,0zM268.73091,157.70176l-0.87698,0.87698l3.63927,3.63927l0.87698,-0.87698zM274.21175,163.18261l-0.87698,0.87698l3.59538,3.59538l0.87698,-0.87698zM279.64872,168.61958l-0.87698,0.87698l3.63927,3.63927l0.87698,-0.87698zM285.08569,174.05655l-0.87698,0.87698l3.63927,3.63927l0.87698,-0.87698zM290.52266,179.49352l-0.87698,0.87698l3.63927,3.63927l0.87698,-0.87698zM295.95962,184.93048l-0.87698,0.87698l3.63927,3.63927l0.87698,-0.87698zM301.39659,190.36745l-0.87698,0.87698l3.63927,3.63927l0.87698,-0.87698zM306.83355,195.80442l-0.87698,0.87698l3.63927,3.63927l0.87698,-0.87698z" data-paper-data="{&quot;isPathIcon&quot;:true}"></path></g></g></g></svg>